<?xml version="1.0" standalone="no"?>
<!DOCTYPE svg PUBLIC "-//W3C//DTD SVG 1.1//EN" "http://www.w3.org/Graphics/SVG/1.1/DTD/svg11.dtd" >
<!--
2013-9-30: Created.
-->
<svg>
    <metadata>
        Created by iconfont
    </metadata>
    <defs>

        <font id="iconfont" horiz-adv-x="1024">
            <font-face
                    font-family="iconfont"
                    font-weight="500"
                    font-stretch="normal"
                    units-per-em="1024"
                    ascent="896"
                    descent="-128"
            />
            <missing-glyph/>

            <glyph glyph-name="gongjiao" unicode="&#983538;"
                   d="M881.667954 215.969112l0-47.444015q0-22.733591-4.942085-39.53668t-17.791506-26.687259-38.548263-9.88417l0-61.281853q0-25.698842-18.285714-43.984556t-43.984556-18.285714-43.490347 18.285714-17.791506 43.984556l0 61.281853-371.644788 0 0-61.281853q0-25.698842-17.791506-43.984556t-43.490347-18.285714-43.984556 18.285714-18.285714 43.984556l0 61.281853q-24.710425 0-37.559846 9.88417t-17.791506 26.687259-5.436293 39.042471-0.494208 47.938224l0 556.478764q0 25.698842 9.88417 47.938224t26.687259 39.042471 39.042471 26.687259 47.938224 9.88417l494.208494 0q25.698842 0 47.938224-9.88417t39.042471-26.687259 26.687259-39.042471 9.88417-47.938224l0-556.478764zM385.482625 834.718147q-12.849421 0-21.745174-8.895753t-8.895753-21.745174q0-13.837838 8.895753-22.733591t21.745174-8.895753l251.057915 0q12.849421 0 21.745174 8.895753t8.895753 22.733591q0 12.849421-8.895753 21.745174t-21.745174 8.895753l-251.057915 0zM292.571429 206.084942q18.779923 0 32.123552 13.343629t13.343629 32.123552-13.343629 32.123552-32.123552 13.343629q-19.76834 0-32.617761-13.343629t-12.849421-32.123552 12.849421-32.123552 32.617761-13.343629zM725.498069 208.061776q17.791506 0 30.146718 12.849421t12.355212 30.640927-12.355212 30.640927-30.146718 12.849421q-18.779923 0-31.135135-12.849421t-12.355212-30.640927 12.355212-30.640927 31.135135-12.849421zM820.3861 711.166023l-618.749035 0 0-247.104247 618.749035 0 0 247.104247z"
                   horiz-adv-x="1024"/>


            <glyph glyph-name="triangle-bottom" unicode="&#58923;"
                   d="M523.955 63.827l323.744 512c6.24 9.856 6.624 22.336 0.992 32.512-5.632 10.24-16.384 16.576-28.033 16.576h-647.328c-11.647 0-22.4-6.336-28.033-16.576-2.656-4.8-3.968-10.112-3.968-15.424 0-5.952 1.664-11.904 4.929-17.088l323.616-512c5.856-9.28 16.064-14.911 27.040-14.912s21.184 5.632 27.040 14.912z"
                   horiz-adv-x="1024"/>


            <glyph glyph-name="xia-copy" unicode="&#58916;"
                   d="M28.984 647.524c-32.84-31.92-32.84-83.72 0-115.723l423.445-411.377c32.9-31.905 86.236-31.905 119.070 0l423.433 411.377c32.894 31.993 32.894 83.796 0 115.723-32.851 31.976-86.176 31.976-119.081 0l-363.89-353.535-363.846 353.535c-32.896 31.976-86.226 31.976-119.136 0v0h0.005zM28.984 647.524z"
                   horiz-adv-x="1036"/>


            <glyph glyph-name="dingwei" unicode="&#58942;"
                   d="M516.320553 830.086277C327.473365 829.240951 174.512778 674.914838 175.350878 486.045975c0.787526-177.21493 282.974557-496.596289 315.154731-532.417865a39.737529 39.737529 0 0 1 59.440119 0.2601c31.862273 36.110576 311.202653 357.991787 310.415127 535.213942-0.838101 188.861638-155.178664 341.822225-344.040302 340.984125z m2.196402-492.860961c-76.483906-0.339575-139.009102 61.614845-139.348677 138.105976-0.339575 76.491131 61.629295 139.001877 138.105976 139.334227 76.512806 0.3468 139.023552-61.60762 139.363127-138.091526 0.339575-76.498356-61.614845-139.001877-138.120426-139.348677z"
                   horiz-adv-x="1024"/>


            <glyph glyph-name="xishoupan-" unicode="&#59391;"
                   d="M1403.965616 230.69341h-161.375358c71.885387 52.26361 118.647564 137.169054 118.647564 232.710601v42.727794c0 44.011461-35.759312 79.770774-79.770773 79.770774h-151.106017V641.100287c0 15.22063-12.286533 27.507163-27.507164 27.507163s-27.507163-12.286533-27.507163-27.507163v-55.197708h-89.856734V641.100287c0 15.22063-12.286533 27.507163-27.507163 27.507163s-27.507163-12.286533-27.507163-27.507163v-55.197708H333.936963v101.593123h35.209169c22.922636 0 41.627507 18.704871 41.627507 41.810888L462.853868 833.65043h72.985674c11.553009 0 20.905444 9.352436 20.905444 20.905444V875.094556c0 11.553009-9.352436 20.905444-20.905444 20.905444H181.363897C158.25788 896 139.553009 877.295129 139.553009 854.372493L202.08596 729.123209c0-23.106017 18.704871-41.810888 41.810888-41.810888h35.025788v-101.593123H150.005731c-44.011461 0-79.770774-35.759312-79.770774-79.770774V463.22063c0-95.541547 46.762178-180.26361 118.647564-232.710601H27.507163c-15.22063 0-27.507163-12.286533-27.507163-27.507164s12.286533-27.507163 27.507163-27.507163h201.535817c-0.733524-3.667622-1.100287-7.518625-1.100287-11.553009v-229.226361c0-34.659026 28.057307-62.716332 62.716333-62.716332h31.541547c34.659026 0 62.716332 28.057307 62.716332 62.716332v229.226361c0 4.034384-0.366762 7.885387-1.100286 11.553009h641.65043c-0.733524-3.667622-1.100287-7.518625-1.100287-11.553009v-229.226361c0-34.659026 28.057307-62.716332 62.716333-62.716332H1118.624642c34.659026 0 62.716332 28.057307 62.716332 62.716332v229.226361c0 4.034384-0.366762 7.885387-1.100286 11.553009h223.724928c15.22063 0 27.507163 12.286533 27.507163 27.507163s-12.286533 27.690544-27.507163 27.690545zM243.896848 770.934097l-20.905444 41.627508c0 11.553009 9.352436 20.905444 20.905444 20.905444h125.065903c11.553009 0 20.905444-9.352436 20.905444-20.905444l-20.905444-41.627508c0-11.553009-9.352436-20.905444-20.905444-20.905444h-83.438396c-11.553009-0.183381-20.722063 9.352436-20.722063 20.905444zM125.249284 463.404011v42.727794c0 13.570201 11.186246 24.756447 24.756447 24.756447h1131.461318c13.570201 0 24.756447-11.186246 24.756447-24.756447v-42.727794c0-128.366762-104.34384-232.710602-232.710602-232.710601H357.959885c-128.366762 0-232.710602 104.34384-232.710601 232.710601z m212.355301-528.504298c0-8.43553-6.968481-15.404011-15.404012-15.404011h-31.541547c-8.43553 0-15.404011 6.968481-15.404012 15.404011v229.226361c0 4.584527 2.017192 8.802292 5.318052 11.553009h52.080229c3.117479-2.750716 5.318052-6.968481 5.318052-11.553009v-229.226361z m796.607449 229.226361v-229.226361c0-8.43553-6.968481-15.404011-15.404011-15.404011h-31.541547c-8.43553 0-15.404011 6.968481-15.404012 15.404011v229.226361c0 4.584527 2.017192 8.802292 5.318052 11.553009h52.080229c2.934097-2.934097 4.951289-6.968481 4.951289-11.553009z"
                   horiz-adv-x="1431"/>


            <glyph glyph-name="huidaodingbu" unicode="&#58883;"
                   d="M754.422 360.37L534.315 580.959c-3.137 4.727-7.77 8.647-13.72 10.728-3.183 1.25-6.563 1.812-9.993 1.739-0.245 0-0.442 0.124-0.698 0.124-0.332 0-0.6-0.149-0.932-0.171-3.343 0.047-6.639-0.467-9.712-1.666-6.05-2.106-10.752-6.076-13.913-10.925L265.433 360.37c-10.202-10.191-9.406-27.531 1.727-38.654 11.145-11.118 27.948-11.412 38.152-1.223 0.806 0.833 1.604 1.372 2.277 2.303l173.827 173.521 0.282-413.373c-0.16-1.08 0-1.96 0-3.039 0-13.568 12.076-24.59 27.838-24.59s28.547 11.022 28.547 24.59l0.295 416.412 173.863-173.52c0.687-0.932 1.47-1.471 2.305-2.304 10.188-10.19 26.991-9.895 38.136 1.223 11.147 11.123 11.93 28.463 1.74 38.654z m110.84 325.682c0-13.851-11.22-25.082-25.083-25.082H179.665c-13.852 0-25.083 11.232-25.083 25.082 0 13.853 11.231 25.084 25.083 25.084H840.18c13.863 0 25.083-11.231 25.083-25.084z"
                   horiz-adv-x="1024"/>


            <glyph glyph-name="xiyiji" unicode="&#58911;"
                   d="M504.9 34.6c142.3 0 257.6 115.3 257.6 257.6S647.2 549.8 504.9 549.8 247.3 434.5 247.3 292.2c-0.1-142.2 115.2-257.6 257.6-257.6z m0 468.4c116.3 0 210.7-94.4 210.7-210.7 0-116.4-94.4-210.7-210.7-210.7-116.4 0-210.7 94.4-210.7 210.7C294 408.6 388.4 503 504.9 503zM803.1 830.9H206.5c-42.1 0-76.4-33.9-76.4-75.7v-738.7c0-41.7 34.3-75.7 76.4-75.7h596.6c42.1 0 76.4 33.9 76.4 75.7V755.2c0 41.8-34.3 75.7-76.4 75.7zM833 7.8c0-9.9-19.9-18-29.9-18H194.7c-10 0-18.2 8.1-18.2 18v587H833v-587z m0 636H176.6V765.5c6.6 18.4 18.2 18 18.2 18h620c10 0 18.2-8.1 18.2-18v-121.7z m-445.3 93.4H247.2c-12.9 0-23.4-10.5-23.4-23.4 0-12.9 10.5-23.5 23.4-23.5h140.5c12.9 0 23.4 10.5 23.4 23.5 0.1 12.8-10.5 23.4-23.4 23.4z m281 0c-12.9 0-23.5-10.5-23.5-23.4 0-12.9 10.5-23.5 23.5-23.5 12.9 0 23.4 10.5 23.4 23.5 0 12.8-10.5 23.4-23.4 23.4z m93.7 0c-12.9 0-23.4-10.5-23.4-23.4 0-12.9 10.5-23.5 23.4-23.5s23.5 10.5 23.5 23.5c-0.1 12.8-10.6 23.4-23.5 23.4z m0 0"
                   horiz-adv-x="1024"/>


            <glyph glyph-name="chufangyongpin" unicode="&#59152;"
                   d="M1002.666667 490.666667h-128v42.666666h42.666666v42.666667H149.333333v-42.666667h42.666667v-42.666666H64v-42.666667h29.866667l36.266666-72.533333c4.266667-8.533333 10.666667-12.8 19.2-12.8h42.666667v-236.8c0-6.4 2.133333-12.8 8.533333-17.066667l98.133334-83.2c4.266667-4.266667 8.533333-4.266667 12.8-4.266667h445.866666c4.266667 0 10.666667 2.133333 12.8 4.266667l98.133334 83.2c4.266667 4.266667 8.533333 10.666667 8.533333 17.066667V362.666667h42.666667c8.533333 0 14.933333 4.266667 19.2 12.8l36.266666 72.533333H1002.666667v42.666667zM162.133333 405.333333l-21.333333 42.666667H192v-42.666667H162.133333zM832 136.533333L748.8 64H317.866667L234.666667 136.533333V533.333333h597.333333v-396.8zM904.533333 405.333333H874.666667v42.666667h51.2l-21.333334-42.666667zM917.333333 640H661.333333V684.8c0 6.4-2.133333 10.666667-6.4 14.933333l-40.533333 40.533334c-4.266667 4.266667-10.666667 6.4-14.933333 6.4H469.333333c-6.4 0-10.666667-2.133333-14.933333-6.4l-40.533333-40.533334c-6.4-4.266667-8.533333-8.533333-8.533334-14.933333V640H149.333333v-42.666667h768v42.666667z m-469.333333 36.266667L475.733333 704h113.066667l27.733333-27.733333V640h-170.666666v36.266667z"
                   horiz-adv-x="1024"/>


            <glyph glyph-name="shoucang" unicode="&#58951;"
                   d="M773.45792-109.42976c-14.40256 0-30.592 4.13184-45.59872 11.63776l-214.29248 107.18208-215.61856-107.008c-13.65504-7.2704-29.2864-11.08992-45.22496-11.08992a96.16384 96.16384 0 0 0-57.5488 18.8416c-30.17728 22.64064-45.63968 61.8496-38.5024 97.5616l44.09856 228.77184L31.744 394.00448a104.05888 104.05888 0 0 0-26.28096 100.6592l0.33792 1.16224c12.288 36.82816 42.77248 62.63296 79.73376 67.584l234.83904 42.7008L425.7792 820.18816c16.93184 33.8944 51.36896 55.67488 87.78752 55.67488 37.9904 0 73.3184-22.59968 88.13056-56.28928l105.06752-213.4016 234.87488-41.0624A95.67232 95.67232 0 0 0 1019.904 496.73728a98.9696 98.9696 0 0 0-24.4736-101.00224l-0.57856-0.57856-168.5504-158.72 42.5984-229.18144c6.8608-36.64896-7.71584-73.67168-38.06208-96.7424a90.40896 90.40896 0 0 0-57.37984-19.9424z m-259.8144 199.55712l224.97792-112.51712c6.6048-3.328 14.21824-5.42208 19.4304-5.42208 8.01792 0 15.46752 2.46784 20.93568 7.02976l1.01888 0.83968c12.78464 9.59488 19.01568 24.83712 16.22016 39.76704l-45.27616 243.8912 179.07712 168.63744c10.98752 11.14624 14.75072 27.1104 9.87648 41.78944l-0.49152 1.54112a36.88448 36.88448 0 0 1-30.60736 26.68544l-1.01888 0.15872-247.78752 43.3152-111.5136 226.51392c-5.41696 12.65664-20.10624 21.84192-34.944 21.84192-14.57664 0-28.5184-9.12384-35.584-23.2192L367.16032 545.9456l-249.088-45.25056c-15.1296-1.89952-26.88-11.94496-32.31232-27.61728-3.85024-14.32064 0.71168-31.56992 11.2384-42.33216l179.28192-167.0656-47.0528-244.0192c-2.82624-14.11072 3.85536-30.35136 16.21504-39.62368 6.1952-4.6592 14.22336-7.22944 22.64576-7.22944 6.49216 0 12.71296 1.5104 18.07872 4.39808l0.77312 0.45056 226.70336 112.47104z"
                   horiz-adv-x="1024"/>


            <glyph glyph-name="zhuye" unicode="&#58905;"
                   d="M776.4992-61.39904H612.67968c-38.48192 0-69.95968 31.488-69.95968 69.95968v224.4608h-51.3024v-224.4608c0-38.47168-31.47776-69.95968-69.95968-69.95968H256.4608c-38.48192 0-69.95968 31.488-69.95968 69.95968V326.88128h-66.4576c-28.5696 0-53.63712 16.90624-64.7168 43.14112-11.07968 26.23488-4.66944 55.97184 15.1552 76.38016l2.9184 2.9184 395.27424 342.2208c12.83072 12.24704 29.73696 18.65728 47.81056 18.65728 17.48992 0 34.39616-6.41024 47.81056-18.65728l397.60896-343.97184 0.58368-0.58368c19.82464-19.82464 26.23488-50.13504 15.1552-76.38016-11.07968-26.23488-36.1472-43.14112-64.7168-43.14112h-66.4576v-318.32064c0-39.05536-31.488-70.54336-69.96992-70.54336zM490.82368 279.6544h51.3024a46.78656 46.78656 0 0 0 46.6432-46.6432v-224.4608a23.38816 23.38816 0 0 1 23.31648-23.31648h163.82976a23.38816 23.38816 0 0 1 23.31648 23.31648V373.52448h113.68448c9.32864 0 18.0736 5.24288 21.57568 14.57152a23.48032 23.48032 0 0 1-5.24288 25.6512L532.224 757.1456a22.50752 22.50752 0 0 1-31.47776 0l-0.58368-0.58368-396.45184-342.80448c-6.41024-6.99392-8.16128-16.32256-4.6592-25.06752a23.47008 23.47008 0 0 1 21.57568-14.57152h113.1008v-364.96384a23.38816 23.38816 0 0 1 23.31648-23.31648h164.4032a23.38816 23.38816 0 0 1 23.31648 23.31648v224.4608c-0.58368 25.64096 20.40832 46.03904 46.05952 46.03904z m0 0"
                   horiz-adv-x="1024"/>


            <glyph glyph-name="paixu" unicode="&#58885;"
                   d="M685.202286 766.390857l217.819428-217.819428a37.083429 37.083429 0 0 1 52.370286 0 36.937143 36.937143 0 0 1 0 52.224L674.377143 881.810286a36.937143 36.937143 0 0 1-62.756572-22.674286c-0.219429-1.170286-0.219429-2.340571-0.219428-3.510857v-946.029714a37.010286 37.010286 0 0 1 74.020571 0V766.390857h-0.219428zM352.621714-115.565714L72.630857 164.425143a36.937143 36.937143 0 0 0 52.150857 52.150857l217.6-217.746286V855.625143a37.010286 37.010286 0 0 0 74.020572 0v-946.029714a37.010286 37.010286 0 0 0-37.010286-37.010286 37.156571 37.156571 0 0 0-26.770286 11.849143z"
                   horiz-adv-x="1024"/>


            <glyph glyph-name="sj-small-up" unicode="&#59305;"
                   d="M789.11115837 249.47806845000002l-279.65492248 279.65492248-278.8075161-278.8075161z"
                   horiz-adv-x="1024"/>


            <glyph glyph-name="kongtiao" unicode="&#59086;"
                   d="M125.7 291.5c-33.5 0-60.8 27.3-60.8 60.8V674.2c0 33.5 27.3 60.8 60.8 60.8h772.6c33.5 0 60.8-27.3 60.8-60.8v-321.9c0-33.5-27.3-60.8-60.8-60.8H125.7z m-3.6 382.7v-321.9l3.6-3.6h772.6l3.6 3.6V674.2l-3.6 3.6H125.7l-3.6-3.6zM125.7 420.2c-15.8 0-28.6 12.8-28.6 28.6s12.8 28.6 28.6 28.6h772.6c15.8 0 28.6-12.8 28.6-28.6s-12.8-28.6-28.6-28.6H125.7zM930.9 33c-0.7 0-1.3 0-2 0.1-10.4 0.7-19.6 7.1-24 16.5l-64.4 128.9c-6.5 14-0.7 30.5 13.2 37.5 4 2 8.3 3 12.8 3 10.6 0 20.2-5.8 25.2-15L956 75.3c5-9.3 4.6-20.4-1.1-29.2-5.2-8.2-14.2-13.1-24-13.1z m-257.5 0c-0.7 0-1.3 0-2 0.1-10.4 0.7-19.6 7.1-24 16.5L583 178.5c-6.5 14-0.7 30.5 13.2 37.5 4 2 8.3 3 12.8 3 10.6 0 20.2-5.8 25.2-15l64.3-128.7c5-9.3 4.6-20.4-1.1-29.2-5.2-8.2-14.2-13.1-24-13.1z m-322.8 0c-9.8 0-18.8 4.9-24.1 13.1-5.7 8.8-6.1 19.9-1.1 29.1l64.4 128.9c5 9.2 14.6 14.9 25.2 14.9 4.5 0 8.8-1 12.8-3 13.9-7 19.7-23.5 13.2-37.6l-64.3-128.7c-4.4-9.6-13.6-15.9-24-16.7h-2.1z m-257.5 0c-9.8 0-18.8 4.9-24.1 13.1-5.7 8.8-6.1 19.9-1.1 29.1l64.4 128.9c5 9.2 14.6 14.9 25.2 14.9 4.5 0 8.8-1 12.8-3 13.9-7 19.7-23.5 13.2-37.6l-64.3-128.7c-4.4-9.6-13.6-15.9-24-16.7h-2.1zM702.7 549.7c-15.4 0-28 12.5-28 28 0 15.4 12.5 28 28 28h108.5c15.4 0 28-12.5 28-28 0-15.4-12.5-28-28-28H702.7z"
                   horiz-adv-x="1024"/>


            <glyph glyph-name="reshuiqi" unicode="&#59371;"
                   d="M560 208.1h-96v-104c0-13.2-10.7-24-24-24s-24 10.7-24 24v104H141.8c-29.8 0-55.7 20.6-62.4 49.7C69.2 302 64.2 362.7 64.2 440c0 81.5 5.7 147.5 17 197.9 6.6 29.2 32.5 50 62.4 50h736.9c29.9 0 55.9-20.8 62.4-50 11.3-50.4 17-116.4 17-197.9 0-77.2-5.1-138-15.2-182.2-6.7-29.1-32.5-49.7-62.4-49.7H608v-104c0-13.2-10.7-24-24-24-13.2 0-24 10.7-24 24v104z m0 47.9h80v62c0 18.8-0.8 22.7-2.9 26.7-1.1 2.1-2.4 3.4-4.5 4.5-3.9 2.1-7.9 2.9-26.7 2.9H418.1c-18.8 0-22.7-0.8-26.7-2.9-2.1-1.1-3.4-2.4-4.5-4.5-2.1-3.9-2.9-7.9-2.9-26.7v-62h176z m127.9 0h194.3c7.5 0 13.9 5.2 15.6 12.4 9.2 40.2 14 97.6 14 171.5 0 78.3-5.4 140.9-15.8 187.4-1.6 7.3-8.1 12.5-15.6 12.5H143.5c-7.5 0-14-5.2-15.6-12.5-10.4-46.5-15.8-109.2-15.8-187.4 0-73.9 4.8-131.3 14-171.5 1.7-7.3 8.1-12.4 15.6-12.4H336v62c0 28.5 3 38.9 8.5 49.3 5.6 10.4 13.8 18.6 24.2 24.2 10.4 5.6 20.8 8.5 49.3 8.5h187.8c28.5 0 38.9-3 49.3-8.5 10.4-5.6 18.6-13.8 24.2-24.2 5.6-10.4 8.5-20.8 8.5-49.3v-62zM232.1 512c-22.1 0-40 17.9-40 40s17.9 40 40 40 40-17.9 40-40-17.9-40-40-40z m144 0c-22.1 0-40 17.9-40 40s17.9 40 40 40 40-17.9 40-40-18-40-40-40z"
                   horiz-adv-x="1024"/>


            <glyph glyph-name="shang" unicode="&#59167;"
                   d="M824.0128 217.6512a43.9296 43.9296 0 0 1 0 62.1056l-276.3264 276.3776a47.9744 47.9744 0 0 1-67.8912 0l-276.3776-276.3776a43.9296 43.9296 0 0 1 62.1056-62.1056L513.7408 465.92l248.2176-248.2176a43.9296 43.9296 0 0 1 62.0544 0z"
                   horiz-adv-x="1024"/>


            <glyph glyph-name="renzheng" unicode="&#59295;"
                   d="M512.01228-62.708971a68.711941 68.711941 0 0 0-39.749306 12.634761L296.450782 74.51025c-105.238856 82.570577-162.446789 199.335954-162.446789 329.760422V640.780271a34.362622 34.362622 0 0 0 19.640316 31.05018L473.621924 823.546851a33.730219 33.730219 0 0 0 3.691066 1.493004c22.316262 7.559163 46.930869 7.559163 69.24713 0 1.258667-0.419556 2.499937-0.923022 3.691066-1.493004L870.346481 671.830451a34.360576 34.360576 0 0 0 19.648502-31.05018v-236.509599c0-130.440841-57.217143-247.189845-161.096024-328.753489L551.72884-50.07421c-11.863189-8.423857-25.789363-12.634762-39.71656-12.634761zM202.731284 619.043201v-214.772529c0-108.87978 47.879474-206.433606 134.811382-274.691199L511.994883 6.000923l175.811168 124.58446c85.590354 67.234287 133.460618 164.788114 133.460618 273.684266V619.043201L522.902304 760.457977c-7.131421 2.072195-14.832823 2.055822-21.930475 0L202.731284 619.043201zM448.986851 259.293767L306.546721 418.599006l64.045665 57.267285 105.708554-118.225635 199.487404 204.051349 61.428047-60.052724-238.042511-243.465011c-13.901615-14.217816-36.933167-13.70514-50.187029 1.119497z"
                   horiz-adv-x="1024"/>


            <glyph glyph-name="yigui" unicode="&#59028;"
                   d="M810.728075-26.155065H380.372935a53.79828 53.79828 0 0 0-53.793496 53.791102V673.169944a53.795888 53.795888 0 0 0 53.793496 53.793495h430.35514a53.803065 53.803065 0 0 0 53.793495-53.793495v-645.533907a53.783925 53.783925 0 0 0-53.793495-53.791102zM380.372935 696.224299a23.04957 23.04957 0 0 1-23.051963-23.054355v-645.533907a23.054355 23.054355 0 0 1 6.749308-16.302654 23.063925 23.063925 0 0 1 16.302655-6.749308h430.35514a23.071103 23.071103 0 0 1 16.300261 6.749308 23.066318 23.066318 0 0 1 6.754094 16.302654V673.169944a23.051963 23.051963 0 0 1-23.054355 23.051963H380.372935z m0 0M595.549308-26.155065a15.36 15.36 0 0 0-15.367177 15.367177V711.596262a15.36957 15.36957 0 0 0 30.741533 0v-722.38415a15.367178 15.367178 0 0 0-4.505122-10.864448 15.352822 15.352822 0 0 0-10.869234-4.502729z m0 0M849.152 95.035813H341.949009a15.371963 15.371963 0 1 0 0 30.743925h507.202991a15.371963 15.371963 0 0 0 0-30.743925zM522.54385 354.244187a15.371963 15.371963 0 0 0-15.36957 15.36957v84.537421a15.36957 15.36957 0 1 0 30.739141 0v-84.537421a15.364785 15.364785 0 0 0-4.502729-10.864449 15.36 15.36 0 0 0-10.866842-4.505121z m146.013309 0a15.383925 15.383925 0 0 0-15.36957 15.36957v84.537421a15.36957 15.36957 0 0 0 15.36957 15.367177 15.367178 15.367178 0 0 0 15.371962-15.367177v-84.537421a15.36957 15.36957 0 0 0-15.371962-15.36957z m0 0"
                   horiz-adv-x="1191"/>


            <glyph glyph-name="yonghu" unicode="&#58983;"
                   d="M882.8-7.5C881.4 152.3 780 287 638.6 340.4c82 43.7 138.1 129.5 138.1 229.1 0 144.2-116.9 261.1-261.1 261.2v0.1c-1.7 0-3.3-0.2-4.9-0.2-1.7 0-3.3 0.2-4.9 0.2l-0.1-0.1c-144.2-0.1-261.1-117-261.1-261.2 0-99.6 56-185.4 138.1-229.1C241.1 287 139.8 152.3 138.3-7.5v-5.2c0.2-9.3 2.1-18.1 2.8-27.4h0.6c1.5-14.4 13.7-25.4 28.2-25.4s26.7 11 28.2 25.4h0.9c-0.8 9.8-2.9 19.2-2.9 29.1 0 84.7 33.6 165.9 93.5 225.8 58.7 58.7 138 92 220.9 93.3 82.9-1.3 162.2-34.5 220.9-93.3 60-59.9 93.6-141.1 93.6-225.8 0-9.9-2-19.3-2.9-29.1h0.9c1.5-14.4 13.7-25.4 28.2-25.4s26.7 11 28.2 25.4h0.6c0.7 9.3 2.6 18.1 2.8 27.4v5.2z m-570.5 577c0 110.6 88.4 200.4 198.3 203 109.9-2.7 198.3-92.4 198.3-203s-88.4-200.4-198.3-203c-110 2.7-198.3 92.4-198.3 203z"
                   horiz-adv-x="1024"/>


            <glyph glyph-name="hengxian-" unicode="&#58884;" d="M64 413.8h896.2v-60H64z" horiz-adv-x="1024"/>


            <glyph glyph-name="sousuo" unicode="&#58898;"
                   d="M473.832727 756.363636a334.196364 334.196364 0 1 1 236.450909-97.978181A333.265455 333.265455 0 0 1 473.832727 756.363636z m0-615.098181a280.901818 280.901818 0 1 0 277.178182 280.901818 280.669091 280.669091 0 0 0-277.178182-280.901818zM872.261818 81.454545l-72.843636 69.818182a41.658182 41.658182 0 0 1-58.181818 0 40.261818 40.261818 0 0 1-12.101819-28.625454 40.494545 40.494545 0 0 1 12.101819-28.625455L814.545455 23.505455a41.658182 41.658182 0 0 1 58.181818 0 39.563636 39.563636 0 0 1 11.636363 28.392727 40.261818 40.261818 0 0 1-12.101818 29.556363z"
                   horiz-adv-x="1024"/>


            <glyph glyph-name="zhuozi" unicode="&#58759;"
                   d="M986.453 674.133H37.547c-17.067 0-29.582 13.654-29.582 29.582s13.653 29.583 29.582 29.583h948.906c17.067 0 29.582-13.653 29.582-29.583s-12.515-29.582-29.582-29.582zM37.547 710.542c-4.552 0-6.827-3.413-6.827-6.827 0-4.55 3.413-6.826 6.827-6.826h948.906c4.552 0 6.827 3.413 6.827 6.826 0 4.552-3.413 6.827-6.827 6.827H37.547zM70.542 34.702c-15.929 0-29.582 12.516-29.582 29.583V682.098c0 7.964 6.827 14.79 14.791 14.79h28.444c7.965 0 14.792-6.826 14.792-14.79v-617.813c0-17.067-12.516-29.583-28.445-29.583z m-6.827 639.431v-609.848c0-3.414 2.276-6.827 6.827-6.827s6.827 2.275 6.827 6.827V674.133H63.715z m889.743-639.431c-15.93 0-29.583 12.516-29.583 29.583V682.098c0 7.964 6.827 14.79 14.792 14.79h28.444c7.964 0 14.79-6.826 14.79-14.79v-617.813c1.139-17.067-12.514-29.583-28.443-29.583z m-5.69 639.431v-609.848c0-3.414 2.277-6.827 6.827-6.827 3.414 0 6.827 2.275 6.827 6.827V674.133h-13.653zM947.769 281.6H565.475c-23.893 0-43.235 19.342-43.235 43.235V696.89h425.529V281.6zM544.995 674.133v-348.16a20.395 20.395 0 0 1 20.48-20.48h359.538v368.64H544.995zM936.391 545.565H533.618c-6.827 0-11.378 4.55-11.378 11.377s4.551 11.378 11.378 11.378h402.773c6.827 0 11.378-4.551 11.378-11.378s-5.689-11.377-11.378-11.377z m0-130.845H533.618c-6.827 0-11.378 4.551-11.378 11.378s4.551 11.377 11.378 11.377h402.773c6.827 0 11.378-4.55 11.378-11.377s-5.689-11.378-11.378-11.378zM761.173 610.418h-39.822c-7.964 0-14.791 6.827-14.791 14.79S713.387 640 721.351 640h39.822c7.965 0 14.792-6.827 14.792-14.791s-6.827-14.79-14.792-14.79z m0-139.947h-39.822c-7.964 0-14.791 6.827-14.791 14.79s6.827 14.792 14.791 14.792h39.822c7.965 0 14.792-6.826 14.792-14.791s-6.827-14.79-14.792-14.79z m0-124.018h-39.822c-7.964 0-14.791 6.827-14.791 14.792s6.827 14.79 14.791 14.79h39.822c7.965 0 14.792-6.826 14.792-14.79s-6.827-14.792-14.792-14.792zM544.995 577.422H76.231V696.889h468.764v-119.467zM98.987 600.178H522.24v72.817H98.987v-72.817zM304.925 625.209H96.71c-6.826 0-11.378 4.551-11.378 11.378s4.552 11.378 11.378 11.378h208.214c6.826 0 11.377-4.552 11.377-11.378s-5.689-11.378-11.377-11.378z m118.328 0H368.64c-6.827 0-11.378 4.551-11.378 11.378s4.551 11.378 11.378 11.378h54.613c6.827 0 11.378-4.552 11.378-11.378s-4.551-11.378-11.378-11.378z"
                   horiz-adv-x="1024"/>


            <glyph glyph-name="yangguang" unicode="&#58995;"
                   d="M512 109.7216A274.5856 274.5856 0 0 0 237.7216 384 274.5856 274.5856 0 0 0 512 658.2784 274.5856 274.5856 0 0 0 786.2784 384 274.5856 274.5856 0 0 0 512 109.7216z m0 475.4432a201.3696 201.3696 0 0 1-201.1136-201.216A201.3696 201.3696 0 0 1 512 182.8864 201.3696 201.3696 0 0 1 713.216 384 201.3696 201.3696 0 0 1 512 585.1648zM512-128a36.5568 36.5568 0 0 0-36.5568 36.5568v105.6768a36.5568 36.5568 0 0 0 73.1136 0v-105.6768c0-20.1728-16.384-36.5568-36.5568-36.5568z m0 845.2096a36.5568 36.5568 0 0 0-36.5568 36.5568V859.4432a36.5568 36.5568 0 0 0 73.1136 0v-105.6768c0-20.1728-16.384-36.5568-36.5568-36.5568z m475.4432-369.7664h-105.6768a36.5568 36.5568 0 0 0 0 73.1136h105.6768a36.5568 36.5568 0 0 0 0-73.1136z m-845.2096 0H36.5568a36.5568 36.5568 0 0 0 0 73.1136h105.6768a36.5568 36.5568 0 0 0 0-73.1136z m705.9456-336.1792a36.4544 36.4544 0 0 0-25.856 10.7008l-74.7008 74.7008a36.5568 36.5568 0 1 0 51.712 51.712l74.7008-74.752a36.5568 36.5568 0 0 0 0-51.712 36.4544 36.4544 0 0 0-25.856-10.6496zM250.5216 608.9216a36.4544 36.4544 0 0 0-25.856 10.7008L150.016 694.272a36.5568 36.5568 0 1 0 51.712 51.712l74.752-74.752a36.5568 36.5568 0 0 0-25.9072-62.3616zM175.8208 11.264a36.5568 36.5568 0 0 0-25.856 62.464l74.752 74.6496a36.5568 36.5568 0 1 0 51.712-51.712l-74.752-74.752a36.4544 36.4544 0 0 0-25.856-10.6496zM716.8 653.7216L856.6784 793.6 921.6 728.6784 781.7216 588.8z"
                   horiz-adv-x="1024"/>


            <glyph glyph-name="zuo" unicode="&#59357;"
                   d="M734.40567908-124.17407453999999c-13.74131198 0-27.48262396 5.34384356-37.9158423 15.7770619L245.31676009 342.77606405999995c-20.99367108 20.99367108-20.99367108 54.96524792 0 75.83168463l457.02585771 457.28032646c20.99367108 20.99367108 54.96524792 20.99367108 75.83168465 0 20.99367108-20.99367108 20.99367108-54.96524792 0-75.83168463L358.93705266 380.69190639l413.38446874-413.38446876c20.99367108-20.99367108 20.99367108-54.96524792 0-75.83168464-10.43321836-10.30598399-24.17453035-15.64982755-37.91584232-15.64982753z m0 0"
                   horiz-adv-x="1024"/>


            <glyph glyph-name="meiqi" unicode="&#59024;"
                   d="M768 576H588.5v27h-25v-27H512v37.7h192V704H320v-128h-64c-35.2 0-64-28.8-64-64v-384c0-35.2 28.8-64 64-64h64v-64h384v64h64c35.2 0 64 28.8 64 64V512c0 35.2-28.8 64-64 64zM345 679h334v-40.3H487V576h-26.9v62.9h-25V576H345V679zM228.5 539.5c7.4 7.4 17.2 11.5 27.5 11.5h512c10.3 0 20.1-4.1 27.5-11.5 7.4-7.4 11.5-17.2 11.5-27.5v-244.5H217V512c0 10.3 4.1 20.1 11.5 27.5zM679 25H345v39h334v-39z m116.5 75.5c-7.4-7.4-17.2-11.5-27.5-11.5H256c-10.3 0-20.1 4.1-27.5 11.5-7.4 7.4-11.5 17.2-11.5 27.5V242.5h590V128c0-10.3-4.1-20.1-11.5-27.5z"
                   horiz-adv-x="1024"/>


            <glyph glyph-name="matong" unicode="&#58913;"
                   d="M703.725893 896c55.171122 0 96.106146-44.706341 91.410731-99.902439l-29.795902-350.382829h16.359024c108.94361 1.348683 153.20039-59.691707 132.795317-183.146147-19.880585-120.282537-85.591415-205.249561-197.157463-254.876097l-8.891317-3.846244v-61.814634c0-26.923707-13.71161-42.033951-41.084878-45.330732l-4.695415-0.449561H342.129015a66.56 66.56 0 0 0-9.740488 0c-22.652878 7.217951-34.641171 21.079415-35.939903 41.58439l-0.099902 4.195903v61.814634C173.943259 63.138341 105.260332 153.575024 90.299941 275.181268c-14.685659 119.233561 27.573073 176.202927 126.776196 170.933073l5.994146-0.399609h19.381073L212.705405 796.097561c-4.695415 55.196098 36.214634 99.902439 91.410732 99.902439h399.609756zM143.822673 271.609756l1.948098-12.737561c10.090146-64.861659 37.863024-105.996488 96.131122-168.635317 41.984-36.614244 78.848-56.669659 110.567024-60.191219l5.244878-0.424586v-95.331902h288.967805c0.174829 53.87239 0.174829 85.491512 0 94.857366 28.397268 0 71.230439 29.321366 115.587122 61.090341 68.732878 68.20839 90.761366 131.29678 97.829463 181.372878H143.797698z m675.540293 112.24039l-4.096-0.174829H189.128429c-32.443317 0-49.676488-16.633756-51.699512-49.926244-0.374634-2.147902-0.349659-6.218927 0.099903-12.163122L863.394966 321.560976l0.024975 12.188097c0 32.243512-13.386927 48.952195-40.135804 50.051122l-3.921171 0.049951zM651.651746 846.04878H356.190283C301.793405 846.04878 260.85838 801.342439 264.779551 746.146341l21.254244-300.431609h435.749464L743.062478 746.146341c3.896195 55.196098-37.013854 99.902439-91.410732 99.902439z"
                   horiz-adv-x="1024"/>


        </font>
</defs>
</svg>
